<?xml version="1.0" encoding="UTF-8"?>
<!-- Checkerboard Pattern for Hand-Eye Calibration -->
<!-- 6x7 inner corners (7x8 squares) -->
<!-- Square size: 24mm (2.4cm) - TWICE the size of tiny version -->
<!-- Total size: 168mm x 192mm (16.8cm x 19.2cm) -->
<!-- Optimized for US Letter (8.5" x 11") printing -->
<svg width="8.5in" height="11in" viewBox="0 0 215.9 279.4" xmlns="http://www.w3.org/2000/svg">
  <title>Checkerboard 6x7 - Large US Letter - For Hand-Eye Calibration</title>
  
  <!-- White background -->
  <rect width="215.9" height="279.4" fill="white"/>
  
  <!-- Title and info -->
  <text x="107.95" y="20" font-family="Arial, sans-serif" font-size="5" text-anchor="middle" fill="black" font-weight="bold">
    Hand-Eye Calibration Checkerboard - US LETTER FORMAT
  </text>
  <text x="107.95" y="27" font-family="Arial, sans-serif" font-size="3.5" text-anchor="middle" fill="black">
    6x7 Inner Corners (7x8 Squares) • Square: 24mm • Total: 16.8cm x 19.2cm
  </text>
  <text x="107.95" y="33" font-family="Arial, sans-serif" font-size="3.5" text-anchor="middle" fill="green" font-weight="bold">
    ✓ Optimized for US Letter (8.5" × 11") - Print at 100% scale
  </text>
  <text x="107.95" y="39" font-family="Arial, sans-serif" font-size="3" text-anchor="middle" fill="red" font-weight="bold">
    ⚠ CRITICAL: Measure actual printed square size with ruler! ⚠
  </text>
  
  <!-- Checkerboard centered on US Letter -->
  <!-- 7 columns x 8 rows = 56 squares -->
  <!-- Square size: 24mm -->
  <!-- Total width: 7 * 24 = 168mm -->
  <!-- Total height: 8 * 24 = 192mm -->
  <!-- Center: x = (215.9 - 168) / 2 = 23.95mm -->
  <!-- y = 40mm from top -->
  
  <g transform="translate(23.95, 40)">
    <!-- Row 1 -->
    <rect x="0" y="0" width="24" height="24" fill="black" stroke="black" stroke-width="0.3"/>
    <rect x="24" y="0" width="24" height="24" fill="white" stroke="black" stroke-width="0.3"/>
    <rect x="48" y="0" width="24" height="24" fill="black" stroke="black" stroke-width="0.3"/>
    <rect x="72" y="0" width="24" height="24" fill="white" stroke="black" stroke-width="0.3"/>
    <rect x="96" y="0" width="24" height="24" fill="black" stroke="black" stroke-width="0.3"/>
    <rect x="120" y="0" width="24" height="24" fill="white" stroke="black" stroke-width="0.3"/>
    <rect x="144" y="0" width="24" height="24" fill="black" stroke="black" stroke-width="0.3"/>
    
    <!-- Row 2 -->
    <rect x="0" y="24" width="24" height="24" fill="white" stroke="black" stroke-width="0.3"/>
    <rect x="24" y="24" width="24" height="24" fill="black" stroke="black" stroke-width="0.3"/>
    <rect x="48" y="24" width="24" height="24" fill="white" stroke="black" stroke-width="0.3"/>
    <rect x="72" y="24" width="24" height="24" fill="black" stroke="black" stroke-width="0.3"/>
    <rect x="96" y="24" width="24" height="24" fill="white" stroke="black" stroke-width="0.3"/>
    <rect x="120" y="24" width="24" height="24" fill="black" stroke="black" stroke-width="0.3"/>
    <rect x="144" y="24" width="24" height="24" fill="white" stroke="black" stroke-width="0.3"/>
    
    <!-- Row 3 -->
    <rect x="0" y="48" width="24" height="24" fill="black" stroke="black" stroke-width="0.3"/>
    <rect x="24" y="48" width="24" height="24" fill="white" stroke="black" stroke-width="0.3"/>
    <rect x="48" y="48" width="24" height="24" fill="black" stroke="black" stroke-width="0.3"/>
    <rect x="72" y="48" width="24" height="24" fill="white" stroke="black" stroke-width="0.3"/>
    <rect x="96" y="48" width="24" height="24" fill="black" stroke="black" stroke-width="0.3"/>
    <rect x="120" y="48" width="24" height="24" fill="white" stroke="black" stroke-width="0.3"/>
    <rect x="144" y="48" width="24" height="24" fill="black" stroke="black" stroke-width="0.3"/>
    
    <!-- Row 4 -->
    <rect x="0" y="72" width="24" height="24" fill="white" stroke="black" stroke-width="0.3"/>
    <rect x="24" y="72" width="24" height="24" fill="black" stroke="black" stroke-width="0.3"/>
    <rect x="48" y="72" width="24" height="24" fill="white" stroke="black" stroke-width="0.3"/>
    <rect x="72" y="72" width="24" height="24" fill="black" stroke="black" stroke-width="0.3"/>
    <rect x="96" y="72" width="24" height="24" fill="white" stroke="black" stroke-width="0.3"/>
    <rect x="120" y="72" width="24" height="24" fill="black" stroke="black" stroke-width="0.3"/>
    <rect x="144" y="72" width="24" height="24" fill="white" stroke="black" stroke-width="0.3"/>
    
    <!-- Row 5 -->
    <rect x="0" y="96" width="24" height="24" fill="black" stroke="black" stroke-width="0.3"/>
    <rect x="24" y="96" width="24" height="24" fill="white" stroke="black" stroke-width="0.3"/>
    <rect x="48" y="96" width="24" height="24" fill="black" stroke="black" stroke-width="0.3"/>
    <rect x="72" y="96" width="24" height="24" fill="white" stroke="black" stroke-width="0.3"/>
    <rect x="96" y="96" width="24" height="24" fill="black" stroke="black" stroke-width="0.3"/>
    <rect x="120" y="96" width="24" height="24" fill="white" stroke="black" stroke-width="0.3"/>
    <rect x="144" y="96" width="24" height="24" fill="black" stroke="black" stroke-width="0.3"/>
    
    <!-- Row 6 -->
    <rect x="0" y="120" width="24" height="24" fill="white" stroke="black" stroke-width="0.3"/>
    <rect x="24" y="120" width="24" height="24" fill="black" stroke="black" stroke-width="0.3"/>
    <rect x="48" y="120" width="24" height="24" fill="white" stroke="black" stroke-width="0.3"/>
    <rect x="72" y="120" width="24" height="24" fill="black" stroke="black" stroke-width="0.3"/>
    <rect x="96" y="120" width="24" height="24" fill="white" stroke="black" stroke-width="0.3"/>
    <rect x="120" y="120" width="24" height="24" fill="black" stroke="black" stroke-width="0.3"/>
    <rect x="144" y="120" width="24" height="24" fill="white" stroke="black" stroke-width="0.3"/>
    
    <!-- Row 7 -->
    <rect x="0" y="144" width="24" height="24" fill="black" stroke="black" stroke-width="0.3"/>
    <rect x="24" y="144" width="24" height="24" fill="white" stroke="black" stroke-width="0.3"/>
    <rect x="48" y="144" width="24" height="24" fill="black" stroke="black" stroke-width="0.3"/>
    <rect x="72" y="144" width="24" height="24" fill="white" stroke="black" stroke-width="0.3"/>
    <rect x="96" y="144" width="24" height="24" fill="black" stroke="black" stroke-width="0.3"/>
    <rect x="120" y="144" width="24" height="24" fill="white" stroke="black" stroke-width="0.3"/>
    <rect x="144" y="144" width="24" height="24" fill="black" stroke="black" stroke-width="0.3"/>
    
    <!-- Row 8 -->
    <rect x="0" y="168" width="24" height="24" fill="white" stroke="black" stroke-width="0.3"/>
    <rect x="24" y="168" width="24" height="24" fill="black" stroke="black" stroke-width="0.3"/>
    <rect x="48" y="168" width="24" height="24" fill="white" stroke="black" stroke-width="0.3"/>
    <rect x="72" y="168" width="24" height="24" fill="black" stroke="black" stroke-width="0.3"/>
    <rect x="96" y="168" width="24" height="24" fill="white" stroke="black" stroke-width="0.3"/>
    <rect x="120" y="168" width="24" height="24" fill="black" stroke="black" stroke-width="0.3"/>
    <rect x="144" y="168" width="24" height="24" fill="white" stroke="black" stroke-width="0.3"/>
    
    <!-- Outer border -->
    <rect x="0" y="0" width="168" height="192" fill="none" stroke="black" stroke-width="1.0"/>
  </g>
  
  <!-- Measurement indicators -->
  <g transform="translate(23.95, 237)">
    <!-- Horizontal -->
    <line x1="0" y1="4" x2="168" y2="4" stroke="blue" stroke-width="0.5"/>
    <line x1="0" y1="0" x2="0" y2="8" stroke="blue" stroke-width="0.5"/>
    <line x1="168" y1="0" x2="168" y2="8" stroke="blue" stroke-width="0.5"/>
    <text x="84" y="3" font-family="Arial, sans-serif" font-size="3" text-anchor="middle" fill="blue">
      168mm (16.8cm) = 7 squares × 24mm
    </text>
  </g>
  
  <g transform="translate(196.95, 40)">
    <!-- Vertical -->
    <line x1="4" y1="0" x2="4" y2="192" stroke="blue" stroke-width="0.5"/>
    <line x1="0" y1="0" x2="8" y2="0" stroke="blue" stroke-width="0.5"/>
    <line x1="0" y1="192" x2="8" y2="192" stroke="blue" stroke-width="0.5"/>
    <text x="12" y="96" font-family="Arial, sans-serif" font-size="3" text-anchor="start" fill="blue">
      192mm (19.2cm) = 8 squares × 24mm
    </text>
  </g>
  
  <!-- Instructions -->
  <text x="107.95" y="250" font-family="Arial, sans-serif" font-size="4" text-anchor="middle" fill="black" font-weight="bold">
    PRINTING INSTRUCTIONS FOR US LETTER:
  </text>
  
  <text x="107.95" y="258" font-family="Arial, sans-serif" font-size="3" text-anchor="middle" fill="red" font-weight="bold">
    Print at 100% scale (ACTUAL SIZE) - NO scaling or "Fit to Page"
  </text>
  
  <text x="107.95" y="265" font-family="Arial, sans-serif" font-size="2.5" text-anchor="middle" fill="black">
    After printing, measure one square with ruler - should be 24mm (2.4cm)
  </text>
  <text x="107.95" y="271" font-family="Arial, sans-serif" font-size="2.5" text-anchor="middle" fill="black">
    Mount on rigid flat surface (foam board recommended)
  </text>
</svg>

